<svg xmlns="http://www.w3.org/2000/svg" style="display: none;">
    <symbol id="icon-dashboard" viewBox="0 0 24 24">
        <path d="M3 3h8v8H3V3zm10 0h8v5h-8V3zM3 13h8v8H3v-8zm10-3h8v11h-8V10z"/>
    </symbol>

    <symbol id="icon-task" viewBox="0 0 24 24">
        <path d="M9 11l2 2 4-4 1.4 1.4L11 15.8 7.6 12.4 9 11z"/>
        <path d="M19 3h-3.2a3 3 0 0 0-5.6 0H7a2 2 0 0 0-2 2v14a2 2 0 0 0 2 2h12a2 2 0 0 0 2-2V5a2 2 0 0 0-2-2zm-7-1a1 1 0 0 1 1 1h-2a1 1 0 0 1 1-1zm7 17H7V5h12v14z"/>
    </symbol>

    <symbol id="icon-project" viewBox="0 0 24 24">
        <path d="M10 4H4a2 2 0 0 0-2 2v11a3 3 0 0 0 3 3h11a2 2 0 0 0 2-2v-6h-2v6H5a1 1 0 0 1-1-1V6h6V4z"/>
        <path d="M14 2h8v8h-2V5.4l-9.3 9.3-1.4-1.4L18.6 4H14V2z"/>
    </symbol>

    <symbol id="icon-logout" viewBox="0 0 24 24">
        <path d="M10 17v-2H4V9h6V7H4a2 2 0 0 0-2 2v6a2 2 0 0 0 2 2h6z"/>
        <path d="M13 5l1.4 1.4L12.8 8H20v2h-7.2l1.6 1.6L13 13l-4-4 4-4z"/>
        <path d="M20 19h-8v-2h8V7h-8V5h8a2 2 0 0 1 2 2v10a2 2 0 0 1-2 2z"/>
    </symbol>

    <symbol id="icon-theme" viewBox="0 0 24 24">
        <path d="M12 3a9 9 0 1 0 9 9 7 7 0 0 1-9-9z"/>
    </symbol>

    <symbol id="icon-user" viewBox="0 0 24 24">
        <path d="M12 12a4 4 0 1 0-4-4 4 4 0 0 0 4 4zm0 2c-4.4 0-8 2.2-8 5v1h16v-1c0-2.8-3.6-5-8-5z"/>
    </symbol>

    <symbol id="icon-edit" viewBox="0 0 24 24">
        <path d="M3 17.3V21h3.7L17.8 9.9l-3.7-3.7L3 17.3zm14.7-9.8a1 1 0 0 0 0-1.4l-1.8-1.8a1 1 0 0 0-1.4 0l-1.4 1.4 3.7 3.7 1.4-1.4z"/>
    </symbol>

    <symbol id="icon-copy" viewBox="0 0 24 24">
        <path d="M16 1H6a2 2 0 0 0-2 2v12h2V3h10V1z"/>
        <path d="M19 5H10a2 2 0 0 0-2 2v14a2 2 0 0 0 2 2h9a2 2 0 0 0 2-2V7a2 2 0 0 0-2-2zm0 16h-9V7h9v14z"/>
    </symbol>

    <symbol id="icon-plus" viewBox="0 0 24 24">
        <path d="M19 11h-6V5h-2v6H5v2h6v6h2v-6h6z"/>
    </symbol>

    <symbol id="icon-team" viewBox="0 0 24 24">
        <path d="M16 11a3 3 0 1 0-3-3 3 3 0 0 0 3 3zm-8 0a3 3 0 1 0-3-3 3 3 0 0 0 3 3zm8 2c-2.3 0-7 1.2-7 3.5V19h14v-2.5C23 14.2 18.3 13 16 13zM8 13c-2.3 0-7 1.2-7 3.5V19h6v-2.5a4.2 4.2 0 0 1 2.4-3.6A6.8 6.8 0 0 0 8 13z"/>
    </symbol>

    <symbol id="icon-eye" viewBox="0 0 24 24">
        <path d="M12 5c-5 0-9.3 3.1-11 7 1.7 3.9 6 7 11 7s9.3-3.1 11-7c-1.7-3.9-6-7-11-7zm0 12a5 5 0 1 1 0-10 5 5 0 0 1 0 10zm0-2.5a2.5 2.5 0 1 0 0-5 2.5 2.5 0 0 0 0 5z"/>
    </symbol>
</svg>
